<svg width="613" height="275" fill="none" xmlns="http://www.w3.org/2000/svg"><path d="M29.692 232.787v-34.321h3.707v-29.41h8.364v-14.232l1.755-2.136c.068-2.653.129-4.545.129-4.667 0-.435.637-.796 1.416-.796h13.243c.787 0 1.417.354 1.417.796 0 .129.068 2.231.135 5.116l1.383 1.687v22.763h3.741v12.3h4.263v18.246h26.1V81.521h6.344v-5.769l.928.884.082.075 3.3 3.164v.013l1.051.993.278.266.386.374h12.159v-7.905h35.466v7.905h1.62v5.293h4.588v3.64h-4.588v1.238h4.588v134.666h17.384V25.246h16.985V9.09h6.208V0h28.092v9.089h6.209v16.157h16.984V205.35a78.279 78.279 0 0 1 29.434-5.714c1.844 0 3.66.088 5.47.211v-87.61h8.865v-.252h35.507v.252h.223v105.468a79.292 79.292 0 0 1 15.555 17.327l.149-6.334v-.306h.006l.265-11.436v-.367h.007l.257-11.239v-.183l.271-11.62.014-.565.257-11.238.014-.565.264-11.518v-.285l.264-11.463v-.347h.007l.258-11.239v-.014l.271-11.789v-.429l.271-11.381.014-.565.162-6.905.542-23.464.373-16.293.014-.565.251-10.994h18.299v7.082h8.512v-2.748h1.295v-3.98h.698v-23.77h.44v-7.96h.326v-7.959h.521v7.96h.326v7.96h.44v23.756h.698v3.98h1.295v2.748h9.651v2.36l2.772.77.054.013 3.28.898 1.593.435.129.034.251.068.521.143.333.184.128.068 3.857 2.095 3.395 1.85.312.17 7.408 4.028.162.088 1.763.96.094 1.55.014.28 1.457 23.824v.075l1.41 23.049.034.564.684 11.239.014.231 1.464 23.94v.014l.976 15.926c5.706-5.694 12.762-10.021 20.664-12.429v7.741h29.916v-.401h.007v-2.667h-.007v-.646h.007v-3.749c20.095 6.518 34.626 25.444 34.626 47.785 0 3.238-.339 6.395-.922 9.463h29.746v-82.63h42.725v83.562l.901-.32 4.65 1.599v1.32h-.265v1.245h21.919v.83h.332v-.395h.393v.395h.346v2.265h.264v34.948H613V275h-56.293v-.075h-4.277v.082H0c.908-19.124 12.911-35.315 29.692-42.213v-.007Z" fill="url(#a)"/><defs><linearGradient id="a" x1="306.503" y1="275" x2="306.503" y2="0" gradientUnits="userSpaceOnUse"><stop stop-color="#AE1543" stop-opacity="0"/><stop offset="1" stop-color="#AE1543"/></linearGradient></defs></svg>