<svg width="570" height="323" fill="none" xmlns="http://www.w3.org/2000/svg"><path d="M535.028 273.419v-40.312h-4.366v-34.543h-9.851v-16.716l-2.067-2.509c-.08-3.117-.152-5.338-.152-5.482 0-.511-.75-.935-1.668-.935h-15.598c-.926 0-1.668.416-1.668.935 0 .152-.08 2.621-.16 6.009l-1.629 1.982v26.736h-4.406v14.447h-5.021v21.43h-30.741V95.751h-7.472v-6.777l-1.093 1.039-.096.088-3.887 3.716v.015L443.915 95l-.327.312-.455.44h-14.321v-9.286h-41.773v9.285h-1.907v6.217h-5.405v4.275h5.405v1.454h-5.405v158.172h-20.475V29.653h-20.004V10.675h-7.312V0h-33.088v10.675h-7.312v18.978h-20.004v211.54a92.419 92.419 0 0 0-34.669-6.712c-2.171 0-4.31.104-6.442.248V131.827H219.98v-.295h-41.821v.295h-.263v123.877a93.216 93.216 0 0 0-18.32 20.352l-.176-7.439v-.36h-.008l-.311-13.432v-.431h-.008l-.303-13.201v-.216l-.32-13.647-.016-.663-.303-13.201-.016-.663-.311-13.528v-.336l-.312-13.464v-.407h-.008l-.303-13.2v-.016l-.319-13.848v-.503l-.319-13.368-.016-.664-.192-8.11-.639-27.559-.439-19.137-.016-.664-.295-12.912h-21.553v8.318h-10.026v-3.228h-1.525v-4.675h-.822V47.583h-.519v-9.349h-.383v-9.348h-.615v9.348h-.383v9.35h-.519v27.902h-.822v4.675h-1.525v3.228h-11.367v2.773l-3.265.902-.063.017-3.864 1.054-1.876.512-.152.04-.295.08-.615.167-.39.216-.152.08-4.543 2.461-3.999 2.173-.367.2-8.725 4.73-.192.104-2.075 1.127-.112 1.822-.016.328-1.716 27.982v.088l-1.66 27.072-.04.663-.806 13.2-.016.272-1.725 28.119v.016l-1.15 18.705c-6.72-6.688-15.03-11.77-24.338-14.598v9.093H7.5v-.471h-.008v-3.133H7.5v-.759h-.008v-4.403c-23.669 7.655-40.783 29.885-40.783 56.126 0 3.803.399 7.511 1.085 11.114H-67.24v-97.052h-50.322v98.147l-1.062-.375-5.476 1.877v1.551h.311v1.462h-25.815v.975h-.391v-.464h-.463v.464h-.407v2.66h-.312v41.048H-152V323h66.303v-.088h5.037v.096H570c-1.07-22.461-15.207-41.479-34.972-49.581v-.008Z" fill="url(#a)"/><defs><linearGradient id="a" x1="208.996" y1="323" x2="208.996" y2="0" gradientUnits="userSpaceOnUse"><stop stop-color="#AE1543" stop-opacity="0"/><stop offset="1" stop-color="#AE1543"/></linearGradient></defs></svg>