<svg width="1449" height="97" fill="none" xmlns="http://www.w3.org/2000/svg"><path opacity=".102" d="M1444 0v5h5V0h-5Zm0 23v5h5v-5h-5Zm0 23v5h5v-5h-5Zm0 23v5h5v-5h-5Zm0 23v5h5v-5h-5Zm-69-92v5h5V0h-5Zm23 0v5h5V0h-5Zm23 0v5h5V0h-5Zm-46 23v5h5v-5h-5Zm23 0v5h5v-5h-5Zm23 0v5h5v-5h-5Zm-46 23v5h5v-5h-5Zm23 0v5h5v-5h-5Zm23 0v5h5v-5h-5Zm-46 23v5h5v-5h-5Zm23 0v5h5v-5h-5Zm23 0v5h5v-5h-5Zm-46 23v5h5v-5h-5Zm23 0v5h5v-5h-5Zm23 0v5h5v-5h-5ZM1237 0v5h5V0h-5Zm23 0v5h5V0h-5Zm23 0v5h5V0h-5Zm23 0v5h5V0h-5Zm23 0v5h5V0h-5Zm23 0v5h5V0h-5Zm-115 23v5h5v-5h-5Zm23 0v5h5v-5h-5Zm23 0v5h5v-5h-5Zm23 0v5h5v-5h-5Zm23 0v5h5v-5h-5Zm23 0v5h5v-5h-5Zm-115 23v5h5v-5h-5Zm23 0v5h5v-5h-5Zm23 0v5h5v-5h-5Zm23 0v5h5v-5h-5Zm23 0v5h5v-5h-5Zm23 0v5h5v-5h-5Zm-115 23v5h5v-5h-5Zm23 0v5h5v-5h-5Zm23 0v5h5v-5h-5Zm23 0v5h5v-5h-5Zm23 0v5h5v-5h-5Zm23 0v5h5v-5h-5Zm-115 23v5h5v-5h-5Zm23 0v5h5v-5h-5Zm23 0v5h5v-5h-5Zm23 0v5h5v-5h-5Zm23 0v5h5v-5h-5Zm23 0v5h5v-5h-5ZM1099 0v5h5V0h-5Zm23 0v5h5V0h-5Zm23 0v5h5V0h-5Zm23 0v5h5V0h-5Zm23 0v5h5V0h-5Zm23 0v5h5V0h-5Zm-115 23v5h5v-5h-5Zm23 0v5h5v-5h-5Zm23 0v5h5v-5h-5Zm23 0v5h5v-5h-5Zm23 0v5h5v-5h-5Zm23 0v5h5v-5h-5Zm-115 23v5h5v-5h-5Zm23 0v5h5v-5h-5Zm23 0v5h5v-5h-5Zm23 0v5h5v-5h-5Zm23 0v5h5v-5h-5Zm23 0v5h5v-5h-5Zm-115 23v5h5v-5h-5Zm23 0v5h5v-5h-5Zm23 0v5h5v-5h-5Zm23 0v5h5v-5h-5Zm23 0v5h5v-5h-5Zm23 0v5h5v-5h-5Zm-115 23v5h5v-5h-5Zm23 0v5h5v-5h-5Zm23 0v5h5v-5h-5Zm23 0v5h5v-5h-5Zm23 0v5h5v-5h-5Zm23 0v5h5v-5h-5ZM1079 0v5h5V0h-5Zm0 23v5h5v-5h-5Zm0 23v5h5v-5h-5Zm0 23v5h5v-5h-5Zm0 23v5h5v-5h-5Zm-69-92v5h5V0h-5Zm23 0v5h5V0h-5Zm23 0v5h5V0h-5Zm-46 23v5h5v-5h-5Zm23 0v5h5v-5h-5Zm23 0v5h5v-5h-5Zm-46 23v5h5v-5h-5Zm23 0v5h5v-5h-5Zm23 0v5h5v-5h-5Zm-46 23v5h5v-5h-5Zm23 0v5h5v-5h-5Zm23 0v5h5v-5h-5Zm-46 23v5h5v-5h-5Zm23 0v5h5v-5h-5Zm23 0v5h5v-5h-5ZM872 0v5h5V0h-5Zm23 0v5h5V0h-5Zm23 0v5h5V0h-5Zm23 0v5h5V0h-5Zm23 0v5h5V0h-5Zm23 0v5h5V0h-5ZM872 23v5h5v-5h-5Zm23 0v5h5v-5h-5Zm23 0v5h5v-5h-5Zm23 0v5h5v-5h-5Zm23 0v5h5v-5h-5Zm23 0v5h5v-5h-5ZM872 46v5h5v-5h-5Zm23 0v5h5v-5h-5Zm23 0v5h5v-5h-5Zm23 0v5h5v-5h-5Zm23 0v5h5v-5h-5Zm23 0v5h5v-5h-5ZM872 69v5h5v-5h-5Zm23 0v5h5v-5h-5Zm23 0v5h5v-5h-5Zm23 0v5h5v-5h-5Zm23 0v5h5v-5h-5Zm23 0v5h5v-5h-5ZM872 92v5h5v-5h-5Zm23 0v5h5v-5h-5Zm23 0v5h5v-5h-5Zm23 0v5h5v-5h-5Zm23 0v5h5v-5h-5Zm23 0v5h5v-5h-5ZM734 0v5h5V0h-5Zm23 0v5h5V0h-5Zm23 0v5h5V0h-5Zm23 0v5h5V0h-5Zm23 0v5h5V0h-5Zm23 0v5h5V0h-5ZM734 23v5h5v-5h-5Zm23 0v5h5v-5h-5Zm23 0v5h5v-5h-5Zm23 0v5h5v-5h-5Zm23 0v5h5v-5h-5Zm23 0v5h5v-5h-5ZM734 46v5h5v-5h-5Zm23 0v5h5v-5h-5Zm23 0v5h5v-5h-5Zm23 0v5h5v-5h-5Zm23 0v5h5v-5h-5Zm23 0v5h5v-5h-5ZM734 69v5h5v-5h-5Zm23 0v5h5v-5h-5Zm23 0v5h5v-5h-5Zm23 0v5h5v-5h-5Zm23 0v5h5v-5h-5Zm23 0v5h5v-5h-5ZM734 92v5h5v-5h-5Zm23 0v5h5v-5h-5Zm23 0v5h5v-5h-5Zm23 0v5h5v-5h-5Zm23 0v5h5v-5h-5Zm23 0v5h5v-5h-5ZM710 0v5h5V0h-5Zm0 23v5h5v-5h-5Zm0 23v5h5v-5h-5Zm0 23v5h5v-5h-5Zm0 23v5h5v-5h-5ZM641 0v5h5V0h-5Zm23 0v5h5V0h-5Zm23 0v5h5V0h-5Zm-46 23v5h5v-5h-5Zm23 0v5h5v-5h-5Zm23 0v5h5v-5h-5Zm-46 23v5h5v-5h-5Zm23 0v5h5v-5h-5Zm23 0v5h5v-5h-5Zm-46 23v5h5v-5h-5Zm23 0v5h5v-5h-5Zm23 0v5h5v-5h-5Zm-46 23v5h5v-5h-5Zm23 0v5h5v-5h-5Zm23 0v5h5v-5h-5ZM503 0v5h5V0h-5Zm23 0v5h5V0h-5Zm23 0v5h5V0h-5Zm23 0v5h5V0h-5Zm23 0v5h5V0h-5Zm23 0v5h5V0h-5ZM503 23v5h5v-5h-5Zm23 0v5h5v-5h-5Zm23 0v5h5v-5h-5Zm23 0v5h5v-5h-5Zm23 0v5h5v-5h-5Zm23 0v5h5v-5h-5ZM503 46v5h5v-5h-5Zm23 0v5h5v-5h-5Zm23 0v5h5v-5h-5Zm23 0v5h5v-5h-5Zm23 0v5h5v-5h-5Zm23 0v5h5v-5h-5ZM503 69v5h5v-5h-5Zm23 0v5h5v-5h-5Zm23 0v5h5v-5h-5Zm23 0v5h5v-5h-5Zm23 0v5h5v-5h-5Zm23 0v5h5v-5h-5ZM503 92v5h5v-5h-5Zm23 0v5h5v-5h-5Zm23 0v5h5v-5h-5Zm23 0v5h5v-5h-5Zm23 0v5h5v-5h-5Zm23 0v5h5v-5h-5ZM365 0v5h5V0h-5Zm23 0v5h5V0h-5Zm23 0v5h5V0h-5Zm23 0v5h5V0h-5Zm23 0v5h5V0h-5Zm23 0v5h5V0h-5ZM365 23v5h5v-5h-5Zm23 0v5h5v-5h-5Zm23 0v5h5v-5h-5Zm23 0v5h5v-5h-5Zm23 0v5h5v-5h-5Zm23 0v5h5v-5h-5ZM365 46v5h5v-5h-5Zm23 0v5h5v-5h-5Zm23 0v5h5v-5h-5Zm23 0v5h5v-5h-5Zm23 0v5h5v-5h-5Zm23 0v5h5v-5h-5ZM365 69v5h5v-5h-5Zm23 0v5h5v-5h-5Zm23 0v5h5v-5h-5Zm23 0v5h5v-5h-5Zm23 0v5h5v-5h-5Zm23 0v5h5v-5h-5ZM365 92v5h5v-5h-5Zm23 0v5h5v-5h-5Zm23 0v5h5v-5h-5Zm23 0v5h5v-5h-5Zm23 0v5h5v-5h-5Zm23 0v5h5v-5h-5ZM345 0v5h5V0h-5Zm0 23v5h5v-5h-5Zm0 23v5h5v-5h-5Zm0 23v5h5v-5h-5Zm0 23v5h5v-5h-5ZM276 0v5h5V0h-5Zm23 0v5h5V0h-5Zm23 0v5h5V0h-5Zm-46 23v5h5v-5h-5Zm23 0v5h5v-5h-5Zm23 0v5h5v-5h-5Zm-46 23v5h5v-5h-5Zm23 0v5h5v-5h-5Zm23 0v5h5v-5h-5Zm-46 23v5h5v-5h-5Zm23 0v5h5v-5h-5Zm23 0v5h5v-5h-5Zm-46 23v5h5v-5h-5Zm23 0v5h5v-5h-5Zm23 0v5h5v-5h-5ZM138 0v5h5V0h-5Zm23 0v5h5V0h-5Zm23 0v5h5V0h-5Zm23 0v5h5V0h-5Zm23 0v5h5V0h-5Zm23 0v5h5V0h-5ZM138 23v5h5v-5h-5Zm23 0v5h5v-5h-5Zm23 0v5h5v-5h-5Zm23 0v5h5v-5h-5Zm23 0v5h5v-5h-5Zm23 0v5h5v-5h-5ZM138 46v5h5v-5h-5Zm23 0v5h5v-5h-5Zm23 0v5h5v-5h-5Zm23 0v5h5v-5h-5Zm23 0v5h5v-5h-5Zm23 0v5h5v-5h-5ZM138 69v5h5v-5h-5Zm23 0v5h5v-5h-5Zm23 0v5h5v-5h-5Zm23 0v5h5v-5h-5Zm23 0v5h5v-5h-5Zm23 0v5h5v-5h-5ZM138 92v5h5v-5h-5Zm23 0v5h5v-5h-5Zm23 0v5h5v-5h-5Zm23 0v5h5v-5h-5Zm23 0v5h5v-5h-5Zm23 0v5h5v-5h-5ZM0 0v5h5V0H0Zm23 0v5h5V0h-5Zm23 0v5h5V0h-5Zm23 0v5h5V0h-5Zm23 0v5h5V0h-5Zm23 0v5h5V0h-5ZM0 23v5h5v-5H0Zm23 0v5h5v-5h-5Zm23 0v5h5v-5h-5Zm23 0v5h5v-5h-5Zm23 0v5h5v-5h-5Zm23 0v5h5v-5h-5ZM0 46v5h5v-5H0Zm23 0v5h5v-5h-5Zm23 0v5h5v-5h-5Zm23 0v5h5v-5h-5Zm23 0v5h5v-5h-5Zm23 0v5h5v-5h-5ZM0 69v5h5v-5H0Zm23 0v5h5v-5h-5Zm23 0v5h5v-5h-5Zm23 0v5h5v-5h-5Zm23 0v5h5v-5h-5Zm23 0v5h5v-5h-5ZM0 92v5h5v-5H0Zm23 0v5h5v-5h-5Zm23 0v5h5v-5h-5Zm23 0v5h5v-5h-5Zm23 0v5h5v-5h-5Zm23 0v5h5v-5h-5Z" fill="#000"/></svg>