<svg width="240" height="320" fill="none" xmlns="http://www.w3.org/2000/svg"><path fill-rule="evenodd" clip-rule="evenodd" d="m216 320 24-24v-2l-26 26h2Zm-96 0 120-120v-2L118 320h2Zm48 0 72-72v-2l-74 74h2Zm54 0 18-18v-2l-20 20h2Zm-96 0 114-114v-2L124 320h2Zm48 0 66-66v-2l-68 68h2Zm54 0 12-12v-2l-14 14h2Zm-96 0 108-108v-2L130 320h2Zm48 0 60-60v-2l-62 62h2Zm54 0 6-6v-2l-8 8h2Zm-96 0 102-102v-2L136 320h2Zm48 0 54-54v-2l-56 56h2Zm54 0v-2l-2 2h2Zm-96 0 96-96v-2l-98 98h2Zm48 0 48-48v-2l-50 50h2Zm-42 0 90-90v-2l-92 92h2Zm48 0 42-42v-2l-44 44h2Zm-90 0 132-132v-2L106 320h2Zm48 0 84-84v-2l-86 86h2Zm48 0 36-36v-2l-38 38h2Zm-90 0 126-126v-2L112 320h2Zm48 0 78-78v-2l-80 80h2Zm48 0 30-30v-2l-32 32h2ZM104 0h-2L0 102v2L104 0Zm48 0h-2L0 150v2L152 0Zm48 0h-2L0 198v2L200 0Zm40 8V6L0 246v2L240 8Zm0 48v-2L0 294v2L240 56Zm0 48v-2L22 320h2l216-216Zm0 48v-2L70 320h2l168-168ZM6 0 0 6v2l8-8H6Zm50 0h-2L0 54v2L56 0Zm54 0h-2L0 108v2L110 0Zm48 0h-2L0 156v2L158 0Zm48 0h-2L0 204v2L206 0Zm34 14v-2L0 252v2L240 14Zm0 48v-2L0 300v2L240 62Zm0 48v-2L28 320h2l210-210Zm0 48v-2L76 320h2l162-162ZM12 0 0 12v2L14 0h-2Zm50 0h-2L0 60v2L62 0Zm54 0h-2L0 114v2L116 0Zm48 0h-2L0 162v2L164 0Zm48 0h-2L0 210v2L212 0Zm28 20v-2L0 258v2L240 20Zm0 48v-2L0 306v2L240 68Zm0 48v-2L34 320h2l204-204Zm0 48v-2L82 320h2l156-156ZM18 0 0 18v2L20 0h-2Zm50 0h-2L0 66v2L68 0Zm54 0h-2L0 120v2L122 0Zm48 0h-2L0 168v2L170 0Zm48 0h-2L0 216v2L218 0Zm22 26v-2L0 264v2L240 26Zm0 48v-2L0 312v2L240 74Zm0 48v-2L40 320h2l198-198Zm0 48v-2L88 320h2l150-150ZM26 0h-2L0 24v2L26 0Zm48 0h-2L0 72v2L74 0Zm54 0h-2L0 126v2L128 0Zm48 0h-2L0 174v2L176 0Zm48 0h-2L0 222v2L224 0Zm16 32v-2L0 270v2L240 32Zm0 48v-2L0 318v2L240 80Zm0 48v-2L46 320h2l192-192Zm0 48v-2L94 320h2l144-144ZM32 0h-2L0 30v2L32 0Zm48 0h-2L0 78v2L80 0Zm54 0h-2L0 132v2L134 0Zm48 0h-2L0 180v2L182 0Zm48 0h-2L0 228v2L230 0Zm10 38v-2L0 276v2L240 38Zm0 48v-2L4 320h2L240 86Zm0 48v-2L52 320h2l186-186Zm0 48v-2L100 320h2l138-138ZM38 0h-2L0 36v2L38 0Zm48 0h-2L0 84v2L86 0Zm54 0h-2L0 138v2L140 0Zm48 0h-2L0 186v2L188 0Zm48 0h-2L0 234v2L236 0Zm4 44v-2L0 282v2L240 44Zm0 48v-2L10 320h2L240 92Zm0 48v-2L58 320h2l180-180ZM44 0h-2L0 42v2L44 0Zm48 0h-2L0 90v2L92 0Zm54 0h-2L0 144v2L146 0Zm48 0h-2L0 192v2L194 0Zm46 2V0L0 240v2L240 2Zm0 48v-2L0 288v2L240 50Zm0 48v-2L16 320h2L240 98Zm0 48v-2L64 320h2l174-174ZM0 2l2-2H0v2Zm50-2h-2L0 48v2L50 0Zm48 0h-2L0 96v2L98 0Z" fill="#D6D6D6"/></svg>