<svg width="308" height="273" fill="none" xmlns="http://www.w3.org/2000/svg"><path clip-rule="evenodd" d="M45.911 196.004c0-16.09 13.947-29.182 31.086-29.182 17.138 0 31.086 13.092 31.086 29.182 0 16.09-13.948 29.18-31.086 29.18-17.139 0-31.086-13.09-31.086-29.18Zm5.655 0c0 13.162 11.408 23.873 25.43 23.873s25.431-10.711 25.431-23.873c0-13.164-11.409-23.874-25.43-23.874-14.023 0-25.431 10.71-25.431 23.874Z" stroke="#AB1F44" stroke-width="3"/><path clip-rule="evenodd" d="m146.309 180.069-9.308 5.043c-1.267.687-2.249 2.62-2.017 3.977.022.12.508 2.992.508 6.914 0 3.916-.483 6.79-.506 6.91-.233 1.358.749 3.29 2.017 3.976l9.304 5.044c2.627 1.421 4.51 3.73 5.299 6.496.786 2.762.387 5.642-1.129 8.107l-8.564 13.924c-1.515 2.463-3.972 4.233-6.918 4.973-2.942.738-6.014.363-8.64-1.062l-9.303-5.04c-1.266-.686-3.544-.518-4.68.349-.102.08-2.564 1.948-6.121 3.876-3.514 1.909-6.508 2.992-6.632 3.035-1.369.494-2.663 2.262-2.663 3.637v10.08c0 5.894-5.11 10.692-11.39 10.692H68.436c-6.28 0-11.39-4.798-11.39-10.692v-10.08c0-1.377-1.294-3.143-2.663-3.637-.125-.043-3.115-1.125-6.63-3.035-3.555-1.928-6.017-3.796-6.121-3.876-1.135-.867-3.41-1.039-4.677-.349l-9.308 5.044c-5.442 2.943-12.419 1.19-15.562-3.914l-8.563-13.923c-1.517-2.464-1.916-5.349-1.128-8.11.788-2.767 2.669-5.074 5.295-6.497l9.31-5.043c1.266-.687 2.247-2.622 2.015-3.977-.021-.12-.506-2.992-.506-6.91 0-3.919.485-6.794.506-6.914.234-1.356-.748-3.29-2.015-3.976l-9.31-5.045c-2.624-1.424-4.507-3.729-5.295-6.495-.788-2.762-.389-5.644 1.128-8.109l8.563-13.923c1.517-2.464 3.974-4.232 6.918-4.972 2.948-.738 6.014-.365 8.64 1.058l9.314 5.047c1.27.688 3.544.518 4.68-.35.101-.078 2.56-1.945 6.115-3.872 3.514-1.906 6.504-2.99 6.629-3.035 1.369-.493 2.663-2.261 2.663-3.636v-10.087c0-5.897 5.11-10.692 11.39-10.692h17.128c6.28 0 11.391 4.795 11.393 10.693v10.084c0 1.38 1.294 3.145 2.663 3.638.145.053 3.128 1.132 6.629 3.035 3.554 1.927 6.014 3.794 6.118 3.874 1.139.868 3.413 1.036 4.679.348l9.31-5.043c2.626-1.425 5.699-1.799 8.64-1.06 2.946.74 5.401 2.508 6.918 4.973l8.564 13.923a10.057 10.057 0 0 1 1.129 8.111c-.789 2.763-2.671 5.068-5.297 6.493Zm-16.897 9.892-.005-.034c-.602-3.502 1.494-7.637 4.768-9.41l9.301-5.045c1.319-.714 2.264-1.877 2.663-3.274a5.056 5.056 0 0 0-.563-4.085l-8.564-13.923c-.761-1.237-1.997-2.124-3.485-2.497a5.998 5.998 0 0 0-4.352.528l-9.31 5.042c-3.269 1.775-8.137 1.412-11.067-.825-.022-.018-2.239-1.693-5.382-3.398a48.123 48.123 0 0 0-5.83-2.675c-3.524-1.269-6.289-5.042-6.289-8.59v-10.084c0-2.97-2.573-5.387-5.737-5.387H68.433c-3.165 0-5.738 2.417-5.738 5.387v10.087c0 3.548-2.764 7.318-6.29 8.588-.024.007-2.717.989-5.825 2.675-3.144 1.707-5.36 3.38-5.383 3.399-2.932 2.236-7.792 2.598-11.068.823l-9.313-5.047a6.034 6.034 0 0 0-4.348-.525c-1.49.374-2.726 1.262-3.488 2.499l-8.563 13.923a5.065 5.065 0 0 0-.563 4.085c.397 1.397 1.344 2.56 2.661 3.274l3.022 1.638-.012-.008 6.3 3.415c3.276 1.773 5.371 5.908 4.77 9.413-.009.049-.432 2.62-.432 6.072 0 3.373.404 5.904.43 6.064a.19.19 0 0 1 .001.008c.599 3.5-1.495 7.636-4.77 9.41l-6.28 3.408-.005-.008c-.407.234-1.166.644-2.696 1.471l-.319.172c-1.317.717-2.264 1.878-2.661 3.277a5.059 5.059 0 0 0 .562 4.085l8.564 13.923c1.58 2.569 5.095 3.455 7.84 1.969 1.562-.845 2.462-1.33 3.034-1.61l-.014-.027 6.286-3.403c3.265-1.779 8.132-1.414 11.067.821.02.02 2.24 1.699 5.382 3.402 3.136 1.702 5.801 2.665 5.83 2.675 3.527 1.27 6.29 5.045 6.29 8.59v10.08c0 2.97 2.573 5.385 5.737 5.385H85.57c3.164 0 5.737-2.415 5.737-5.385v-10.08c0-3.545 2.765-7.318 6.291-8.588.025-.007 2.72-.99 5.831-2.677 3.143-1.703 5.363-3.382 5.384-3.402 2.933-2.235 7.798-2.598 11.069-.821l9.301 5.038a6.022 6.022 0 0 0 4.352.53c1.488-.377 2.724-1.262 3.487-2.502l8.564-13.923a5.06 5.06 0 0 0 .563-4.082c-.4-1.398-1.344-2.56-2.664-3.277l-9.306-5.041c-3.274-1.774-5.371-5.909-4.771-9.414.004-.021.432-2.598.432-6.068 0-3.255-.378-5.726-.427-6.041Z" stroke="#AB1F44" stroke-width="3"/><path clip-rule="evenodd" d="M101.056 67.003c0-13.945 12.088-25.29 26.941-25.29s26.941 11.345 26.941 25.29c0 13.945-12.088 25.29-26.941 25.29s-26.941-11.345-26.941-25.29Zm4.901 0c0 11.407 9.887 20.69 22.04 20.69 12.152 0 22.039-9.283 22.039-20.69 0-11.408-9.887-20.69-22.039-20.69-12.153 0-22.04 9.282-22.04 20.69Z" stroke="url(#a)" stroke-width="3"/><path clip-rule="evenodd" d="m188.068 53.193-8.067 4.371c-1.099.595-1.95 2.27-1.748 3.447.018.103.44 2.592.44 5.991 0 3.395-.418 5.885-.438 5.989-.202 1.177.649 2.851 1.748 3.446l8.063 4.371c2.276 1.232 3.909 3.233 4.592 5.63.682 2.394.336 4.89-.978 7.027l-7.422 12.067c-1.313 2.135-3.443 3.669-5.996 4.31-2.55.64-5.212.315-7.488-.92l-8.062-4.368c-1.097-.595-3.072-.449-4.057.302-.087.069-2.222 1.688-5.304 3.36-3.045 1.653-5.64 2.592-5.748 2.63-1.186.427-2.308 1.96-2.308 3.152v8.736c0 5.107-4.429 9.266-9.872 9.266h-14.844c-5.443 0-9.872-4.159-9.872-9.266v-8.736c0-1.193-1.122-2.725-2.308-3.152-.108-.038-2.699-.975-5.746-2.63-3.081-1.672-5.214-3.291-5.305-3.36-.983-.751-2.954-.9-4.053-.302l-8.067 4.371c-4.716 2.551-10.763 1.031-13.486-3.392L64.32 93.466a8.712 8.712 0 0 1-.978-7.029c.684-2.397 2.313-4.397 4.59-5.63L76 76.436c1.097-.595 1.948-2.272 1.746-3.447-.018-.104-.438-2.592-.438-5.988 0-3.396.42-5.888.438-5.992.203-1.176-.648-2.851-1.746-3.446L67.93 53.19c-2.274-1.233-3.905-3.231-4.589-5.629-.683-2.393-.337-4.89.978-7.027l7.422-12.067c1.314-2.135 3.444-3.668 5.995-4.309 2.555-.64 5.212-.316 7.488.917l8.072 4.374c1.101.597 3.071.45 4.056-.303.088-.068 2.219-1.686 5.3-3.356 3.045-1.652 5.637-2.591 5.744-2.63 1.187-.428 2.309-1.96 2.309-3.152v-8.742c0-5.11 4.429-9.266 9.872-9.266h14.844c5.443 0 9.871 4.156 9.873 9.268v8.739c0 1.196 1.122 2.725 2.308 3.153.126.045 2.711.981 5.745 2.63 3.081 1.67 5.212 3.288 5.303 3.357.986.753 2.958.899 4.055.302l8.068-4.37c2.276-1.236 4.94-1.56 7.488-.92 2.553.642 4.681 2.174 5.996 4.31l7.422 12.068a8.713 8.713 0 0 1 .978 7.029c-.683 2.394-2.314 4.392-4.59 5.627Zm-14.644 8.573-.004-.03c-.522-3.034 1.294-6.618 4.132-8.155l8.06-4.372c1.144-.619 1.962-1.627 2.309-2.837a4.386 4.386 0 0 0-.488-3.54l-7.422-12.068c-.66-1.071-1.732-1.84-3.021-2.163a5.198 5.198 0 0 0-3.772.457l-8.068 4.37c-2.833 1.538-7.053 1.223-9.592-.715a41.795 41.795 0 0 0-9.716-5.264c-3.055-1.099-5.451-4.37-5.451-7.444v-8.74c0-2.573-2.23-4.668-4.972-4.668h-14.844c-2.742 0-4.972 2.095-4.972 4.669v8.742c0 3.075-2.396 6.342-5.452 7.443-.02.006-2.355.856-5.048 2.318-2.725 1.48-4.646 2.93-4.666 2.945-2.54 1.939-6.752 2.252-9.592.714l-8.071-4.374a5.23 5.23 0 0 0-3.769-.455c-1.29.324-2.362 1.094-3.022 2.165l-7.422 12.067a4.39 4.39 0 0 0-.488 3.54c.345 1.211 1.165 2.22 2.307 2.838l2.62 1.42-.012-.008 5.46 2.96c2.84 1.537 4.655 5.12 4.134 8.158-.007.043-.374 2.271-.374 5.263 0 2.923.35 5.116.373 5.255v.007c.52 3.033-1.295 6.618-4.133 8.155l-5.443 2.954-.004-.007c-.354.203-1.01.558-2.337 1.275l-.276.15c-1.142.62-1.962 1.627-2.307 2.839a4.384 4.384 0 0 0 .488 3.54l7.422 12.067c1.37 2.226 4.415 2.995 6.794 1.706 1.354-.732 2.134-1.152 2.63-1.395l-.013-.023 5.448-2.95c2.83-1.541 7.048-1.225 9.592.712.017.018 1.94 1.472 4.664 2.948 2.718 1.475 5.028 2.31 5.052 2.319 3.058 1.1 5.452 4.372 5.452 7.445v8.736c0 2.574 2.23 4.667 4.973 4.667h14.844c2.742 0 4.972-2.093 4.972-4.667v-8.736c0-3.073 2.396-6.343 5.452-7.444a41.467 41.467 0 0 0 5.053-2.32c2.724-1.476 4.648-2.93 4.666-2.948 2.543-1.937 6.759-2.252 9.594-.712l8.06 4.367a5.223 5.223 0 0 0 3.772.459c1.29-.326 2.361-1.093 3.022-2.168l7.422-12.067a4.382 4.382 0 0 0 .488-3.537c-.346-1.212-1.165-2.22-2.308-2.84l-8.065-4.37c-2.838-1.537-4.655-5.12-4.135-8.158.003-.019.374-2.252.374-5.26 0-2.82-.328-4.962-.37-5.235Z" stroke="url(#b)" stroke-width="3"/><g opacity=".8" clip-rule="evenodd" stroke="#1D365D" stroke-width="3"><path d="M196.035 165.884c1.122-16.051 15.949-28.138 33.046-26.942 17.096 1.195 30.096 15.228 28.974 31.279-1.122 16.051-15.949 28.136-33.046 26.941-17.096-1.196-30.097-15.227-28.974-31.278Zm5.641.395c-.918 13.129 9.715 24.611 23.703 25.589 13.988.978 26.116-8.912 27.034-22.042.918-13.131-9.715-24.611-23.703-25.589-13.988-.978-26.116 8.91-27.034 22.042Z"/><path d="m297.3 156.992-9.637 4.381c-1.312.597-2.427 2.457-2.289 3.827.012.121.297 3.02.024 6.932-.273 3.907-.956 6.74-.987 6.858-.327 1.338.518 3.334 1.735 4.107l8.93 5.681c2.52 1.601 4.238 4.035 4.832 6.85.592 2.81-.007 5.655-1.692 8.008l-9.514 13.292c-1.683 2.352-4.258 3.946-7.248 4.479-2.987.532-6.025-.057-8.545-1.662l-8.929-5.676c-1.215-.774-3.499-.765-4.693.021-.106.072-2.694 1.764-6.376 3.44-3.639 1.659-6.701 2.53-6.828 2.565-1.4.397-2.814 2.07-2.91 3.442l-.703 10.056c-.411 5.879-5.844 10.309-12.109 9.871l-17.086-1.195c-6.265-.438-11.028-5.581-10.617-11.46l.703-10.056c.096-1.373-1.072-3.226-2.403-3.813-.121-.052-3.028-1.34-6.402-3.491-3.412-2.171-5.737-4.207-5.836-4.294-1.071-.944-3.328-1.273-4.641-.674l-9.637 4.382c-5.634 2.557-12.471.321-15.25-4.989l-7.572-14.487c-1.341-2.563-1.538-5.469-.559-8.169.979-2.705 3.016-4.875 5.735-6.112l9.639-4.381c1.311-.597 2.425-2.459 2.287-3.827-.012-.121-.296-3.019-.022-6.928.273-3.909.957-6.743.987-6.862.328-1.337-.516-3.334-1.733-4.107l-8.935-5.682c-2.519-1.603-4.236-4.034-4.829-6.849-.594-2.81.006-5.657 1.69-8.01l9.514-13.292c1.685-2.352 4.26-3.944 7.248-4.477 2.992-.531 6.025.055 8.546 1.658l8.938 5.684c1.22.776 3.499.765 4.693-.022.107-.071 2.69-1.762 6.371-3.436 3.638-1.657 6.697-2.529 6.824-2.565 1.4-.397 2.815-2.071 2.91-3.442l.704-10.063c.411-5.882 5.844-10.309 12.109-9.87l17.086 1.194c6.265.438 11.028 5.578 10.618 11.462l-.703 10.059c-.096 1.377 1.072 3.228 2.403 3.815.141.063 3.041 1.348 6.401 3.49 3.411 2.17 5.734 4.204 5.833 4.291 1.075.946 3.332 1.272 4.643.674l9.639-4.382c2.719-1.238 5.811-1.396 8.693-.454 2.887.943 5.214 2.879 6.554 5.443l7.572 14.487c1.343 2.564 1.538 5.466.561 8.169-.979 2.702-3.018 4.87-5.737 6.109Zm-17.546 8.688a1.768 1.768 0 0 0-.002-.034c-.356-3.535 2.022-7.514 5.412-9.054l9.63-4.384c1.366-.62 2.389-1.714 2.885-3.08a5.058 5.058 0 0 0-.276-4.114l-7.572-14.487c-.673-1.287-1.844-2.258-3.303-2.734a5.996 5.996 0 0 0-4.378.224l-9.639 4.38c-3.384 1.542-8.216.84-10.983-1.595-.02-.02-2.115-1.846-5.131-3.766a48.041 48.041 0 0 0-5.629-3.075c-3.427-1.511-5.922-5.468-5.675-9.008l.704-10.059c.207-2.963-2.191-5.553-5.347-5.774l-17.086-1.194c-3.157-.221-5.892 2.01-6.099 4.973l-.704 10.062c-.247 3.54-3.268 7.108-6.875 8.129-.023.005-2.779.796-5.996 2.262-3.256 1.483-5.583 2.998-5.608 3.015-3.08 2.026-7.953 2.048-11.098.049l-8.938-5.684a6.032 6.032 0 0 0-4.301-.827c-1.512.268-2.807 1.068-3.653 2.249l-9.515 13.292a5.068 5.068 0 0 0-.846 4.036c.299 1.421 1.162 2.647 2.427 3.451l2.9 1.845-.012-.009 6.047 3.846c3.144 1.998 4.946 6.269 4.101 9.723-.012.048-.613 2.584-.854 6.027-.235 3.365-.008 5.918.006 6.079l.001.008c.352 3.533-2.024 7.514-5.414 9.055l-6.503 2.962-.005-.009c-.423.205-1.208.561-2.792 1.279l-.33.15c-1.365.623-2.39 1.716-2.884 3.083a5.055 5.055 0 0 0 .277 4.114l7.571 14.487c1.398 2.673 4.841 3.802 7.683 2.511 1.618-.734 2.55-1.155 3.14-1.395l-.013-.027 6.508-2.957c3.382-1.546 8.211-.842 10.983 1.592.018.021 2.115 1.85 5.132 3.769 3.009 1.916 5.601 3.063 5.628 3.075 3.431 1.513 5.924 5.471 5.677 9.008l-.703 10.055c-.207 2.963 2.191 5.552 5.347 5.773l17.086 1.194c3.156.221 5.892-2.009 6.099-4.971l.703-10.056c.247-3.536 3.268-7.108 6.875-8.129.025-.005 2.782-.798 6.003-2.263 3.254-1.48 5.586-3 5.608-3.018 3.082-2.025 7.961-2.048 11.1-.047l8.926 5.674a6.023 6.023 0 0 0 4.305.833c1.51-.272 2.805-1.069 3.653-2.253l9.514-13.292a5.054 5.054 0 0 0 .847-4.032c-.301-1.423-1.163-2.648-2.429-3.455l-8.931-5.678c-3.143-1.998-4.946-6.269-4.103-9.724.005-.021.611-2.562.853-6.023.228-3.248.023-5.739-.004-6.057Z"/></g><defs><linearGradient id="a" x1="63" y1="67" x2="363.733" y2="67" gradientUnits="userSpaceOnUse"><stop stop-color="#AB1F44"/><stop offset="1" stop-color="#AB1F44" stop-opacity="0"/><stop offset="1" stop-color="#1D365D"/></linearGradient><linearGradient id="b" x1="63" y1="67" x2="363.733" y2="67" gradientUnits="userSpaceOnUse"><stop stop-color="#AB1F44"/><stop offset="1" stop-color="#AB1F44" stop-opacity="0"/><stop offset="1" stop-color="#1D365D"/></linearGradient></defs></svg>