<svg width="150" height="158" fill="none" xmlns="http://www.w3.org/2000/svg"><path clip-rule="evenodd" d="M44.325 79.004c0-16.734 13.762-30.35 30.672-30.35s30.671 13.616 30.671 30.35-13.761 30.347-30.671 30.347-30.672-13.613-30.672-30.347Zm5.58 0c0 13.688 11.256 24.828 25.091 24.828s25.091-11.14 25.091-24.828c0-13.69-11.256-24.829-25.09-24.829-13.836 0-25.092 11.139-25.092 24.829Z" stroke="#1D365D" stroke-width=".5"/><path clip-rule="evenodd" d="m143.385 62.432-9.184 5.245c-1.251.714-2.219 2.725-1.99 4.136.021.124.501 3.111.501 7.19 0 4.073-.476 7.061-.499 7.186-.23 1.413.739 3.422 1.99 4.136l9.18 5.245a11.053 11.053 0 0 1 5.228 6.757 10.945 10.945 0 0 1-1.114 8.431l-8.45 14.48c-1.494 2.562-3.919 4.403-6.825 5.172a11.27 11.27 0 0 1-8.525-1.104l-9.179-5.241c-1.249-.715-3.497-.54-4.618.362-.1.083-2.53 2.026-6.039 4.032-3.467 1.984-6.42 3.111-6.543 3.156-1.351.513-2.628 2.352-2.628 3.782v10.484c0 6.129-5.042 11.119-11.24 11.119H66.553c-6.197 0-11.24-4.99-11.24-11.119v-10.484c0-1.432-1.276-3.269-2.627-3.782-.123-.045-3.073-1.17-6.542-3.156-3.507-2.006-5.935-3.949-6.039-4.032-1.12-.902-3.363-1.08-4.614-.362l-9.184 5.245c-5.37 3.061-12.253 1.237-15.354-4.07l-8.45-14.481a10.941 10.941 0 0 1-1.112-8.434 11.052 11.052 0 0 1 5.224-6.757l9.186-5.245c1.249-.714 2.217-2.726 1.988-4.136-.021-.124-.5-3.111-.5-7.186 0-4.075.479-7.065.5-7.19.231-1.411-.738-3.422-1.989-4.136l-9.185-5.247a11.054 11.054 0 0 1-5.224-6.755 10.94 10.94 0 0 1 1.112-8.432l8.45-14.48c1.496-2.563 3.92-4.402 6.825-5.171 2.909-.768 5.934-.38 8.525 1.1l9.19 5.249c1.254.716 3.496.539 4.617-.364.1-.082 2.527-2.023 6.034-4.027 3.467-1.983 6.418-3.11 6.54-3.156 1.351-.513 2.628-2.352 2.628-3.782V12.12C55.311 5.987 60.353 1 66.55 1h16.9c6.196 0 11.238 4.987 11.24 11.121v10.487c0 1.435 1.277 3.27 2.628 3.784.142.054 3.085 1.177 6.54 3.156 3.507 2.004 5.933 3.945 6.037 4.029 1.123.903 3.367 1.078 4.616.362l9.186-5.245a11.27 11.27 0 0 1 8.525-1.103c2.906.77 5.329 2.61 6.825 5.173l8.45 14.48a10.941 10.941 0 0 1 1.114 8.435 11.063 11.063 0 0 1-5.226 6.753Zm-16.671 10.287a.363.363 0 0 1-.005-.035c-.594-3.642 1.473-7.942 4.704-9.787l9.176-5.246a5.563 5.563 0 0 0 2.628-3.405 5.51 5.51 0 0 0-.555-4.248l-8.45-14.48a5.604 5.604 0 0 0-3.439-2.597 5.648 5.648 0 0 0-4.294.55l-9.185 5.243c-3.226 1.846-8.03 1.468-10.92-.858-.021-.02-2.209-1.762-5.31-3.535a46.332 46.332 0 0 0-5.752-2.782c-3.478-1.319-6.205-5.243-6.205-8.934V12.12c0-3.09-2.539-5.602-5.66-5.602h-16.9c-3.122 0-5.66 2.513-5.66 5.602v10.49c0 3.69-2.729 7.611-6.208 8.932-.023.007-2.68 1.028-5.746 2.782-3.103 1.775-5.29 3.515-5.312 3.534-2.893 2.327-7.688 2.703-10.92.857l-9.189-5.249a5.683 5.683 0 0 0-4.29-.546 5.607 5.607 0 0 0-3.441 2.598l-8.45 14.48a5.513 5.513 0 0 0-.555 4.25 5.562 5.562 0 0 0 2.626 3.404l2.982 1.703-.013-.008 6.216 3.551c3.233 1.845 5.3 6.145 4.706 9.79-.008.051-.426 2.725-.426 6.315 0 3.508.4 6.14.425 6.306l.001.008c.59 3.64-1.475 7.943-4.706 9.787l-6.196 3.545-.006-.009c-.402.244-1.15.67-2.66 1.53l-.314.179a5.574 5.574 0 0 0-2.627 3.408 5.505 5.505 0 0 0 .556 4.248l8.45 14.481c1.559 2.671 5.026 3.593 7.734 2.047 1.542-.879 2.43-1.383 2.994-1.675l-.014-.027 6.202-3.54c3.222-1.849 8.024-1.47 10.92.855.02.021 2.21 1.766 5.31 3.538 3.094 1.769 5.724 2.771 5.752 2.782 3.481 1.32 6.207 5.246 6.207 8.933v10.484c0 3.088 2.539 5.6 5.66 5.6h16.9c3.122 0 5.66-2.512 5.66-5.6v-10.484c0-3.687 2.728-7.611 6.208-8.932.024-.007 2.684-1.029 5.753-2.783 3.101-1.772 5.291-3.517 5.312-3.538 2.894-2.325 7.694-2.703 10.921-.855l9.177 5.24a5.67 5.67 0 0 0 4.294.551 5.62 5.62 0 0 0 3.441-2.601l8.45-14.481a5.508 5.508 0 0 0 .555-4.245 5.578 5.578 0 0 0-2.628-3.408l-9.182-5.243c-3.231-1.844-5.3-6.145-4.707-9.79.003-.023.425-2.702.425-6.311 0-3.386-.373-5.955-.42-6.283Z" stroke="#1D365D" stroke-width=".5"/></svg>