<svg width="51" height="46" fill="none" xmlns="http://www.w3.org/2000/svg"><path fill="#F7F7F7" d="M0 0h51v46H0z"/><path fill="#9A9A9A" d="M-14173-10053H8232v33582h-22405z"/><g clip-path="url(#a)"><path fill="#fff" d="M-700-5481h1920v7123H-700z"/><path d="M-424.746-76.746H906.29c33.389 0 60.456 27.067 60.456 60.456v389.036H-364.29c-33.389 0-60.456-27.067-60.456-60.456V-76.746Z" fill="#fff" stroke="#F3F3F3" stroke-width="12.508"/><g clip-path="url(#b)" fill="#1D365D"><path d="M0 45.03h21.372V0L0 21.475V45.03ZM29.494 21.475V45.03h21.373V0L29.494 21.475Z"/></g></g><path stroke="red" stroke-width="126" d="M-763-5544h2046v7249H-763z"/><defs><clipPath id="a"><path fill="#fff" d="M-700-5481h1920v7123H-700z"/></clipPath><clipPath id="b"><path fill="#fff" d="M0 0h50.866v45.029H0z"/></clipPath></defs></svg>