<svg width="402" height="484" fill="none" xmlns="http://www.w3.org/2000/svg"><path fill-rule="evenodd" clip-rule="evenodd" d="M40.2 0 0 36.3v3.025L43.55 0H40.2ZM201 0 0 181.5v3.025L204.35 0H201Zm-80.4 0L0 108.9v3.025L123.95 0h-3.35ZM30.15 0 0 27.225v3.025L33.5 0h-3.35Zm160.8 0L0 172.425v3.025L194.3 0h-3.35Zm-80.4 0L0 99.825v3.025L113.9 0h-3.35ZM20.1 0 0 18.15v3.025L23.45 0H20.1Zm160.8 0L0 163.35v3.025L184.25 0h-3.35Zm-80.4 0L0 90.75v3.025L103.85 0h-3.35ZM10.05 0 0 9.075V12.1L13.4 0h-3.35Zm160.8 0L0 154.275v3.025L174.2 0h-3.35Zm-80.4 0L0 81.675V84.7L93.8 0h-3.35ZM0 0v3.025L3.35 0H0Zm160.8 0L0 145.2v3.025L164.15 0h-3.35ZM80.4 0 0 72.6v3.025L83.75 0H80.4Zm70.35 0L0 136.125v3.025L154.1 0h-3.35Zm-80.4 0L0 63.525v3.025L73.7 0h-3.35ZM221.1 0 0 199.65v3.025L224.45 0h-3.35Zm-80.4 0L0 127.05v3.025L144.05 0h-3.35ZM60.3 0 0 54.45v3.025L63.65 0H60.3Zm150.75 0L0 190.575v3.025L214.4 0h-3.35Zm-80.4 0L0 117.975V121L134 0h-3.35Zm-80.4 0L0 45.375V48.4L53.6 0h-3.35ZM227.8 484h3.35L402 329.725V326.7L227.8 484Zm-80.4 0h3.35L402 257.125V254.1L147.4 484ZM67 484h3.35L402 184.525V181.5L67 484ZM0 471.9v3.025l402-363V108.9L0 471.9Zm0-72.6v3.025l402-363V36.3L0 399.3Zm0-72.6v3.025L365.15 0h-3.35L0 326.7Zm0-72.6v3.025L284.75 0h-3.35L0 254.1ZM391.95 484l10.05-9.075V471.9L388.6 484h3.35Zm-83.75 0h3.35L402 402.325V399.3L308.2 484Zm-90.45 0h3.35L402 320.65v-3.025L217.75 484Zm-80.4 0h3.35L402 248.05v-3.025L137.35 484Zm-80.4 0h3.35L402 175.45v-3.025L56.95 484ZM0 462.825v3.025l402-363v-3.025l-402 363Zm0-72.6v3.025l402-363v-3.025l-402 363Zm0-72.6v3.025L355.1 0h-3.35L0 317.625Zm0-72.6v3.025L274.7 0h-3.35L0 245.025ZM381.9 484l20.1-18.15v-3.025L378.55 484h3.35Zm-83.75 0h3.35L402 393.25v-3.025L298.15 484Zm-90.45 0h3.35L402 311.575v-3.025L207.7 484Zm-80.4 0h3.35L402 238.975v-3.025L127.3 484Zm-80.4 0h3.35L402 166.375v-3.025L46.9 484ZM0 453.75v3.025l402-363V90.75l-402 363Zm0-72.6v3.025l402-363V18.15l-402 363Zm0-72.6v3.025L345.05 0h-3.35L0 308.55Zm0-72.6v3.025L264.65 0h-3.35L0 235.95ZM371.85 484 402 456.775v-3.025L368.5 484h3.35Zm-83.75 0h3.35L402 384.175v-3.025L288.1 484Zm-90.45 0H201l201-181.5v-3.025L197.65 484Zm-80.4 0h3.35L402 229.9v-3.025L117.25 484Zm-80.4 0h3.35L402 157.3v-3.025L36.85 484ZM0 444.675v3.025l402-363v-3.025l-402 363Zm0-72.6v3.025l402-363V9.075l-402 363Zm0-72.6v3.025L335 0h-3.35L0 299.475Zm0-72.6v3.025L254.6 0h-3.35L0 226.875ZM358.45 484h3.35l40.2-36.3v-3.025L358.45 484Zm-80.4 0h3.35L402 375.1v-3.025L278.05 484Zm-90.45 0h3.35L402 293.425V290.4L187.6 484Zm-80.4 0h3.35L402 220.825V217.8L107.2 484Zm-80.4 0h3.35L402 148.225V145.2L26.8 484ZM0 435.6v3.025l402-363V72.6L0 435.6ZM0 363v3.025l402-363V0L0 363Zm0-72.6v3.025L324.95 0h-3.35L0 290.4Zm0-72.6v3.025L244.55 0h-3.35L0 217.8ZM348.4 484h3.35L402 438.625V435.6L348.4 484Zm-80.4 0h3.35L402 366.025V363L268 484Zm-90.45 0h3.35L402 284.35v-3.025L177.55 484Zm-80.4 0h3.35L402 211.75v-3.025L97.15 484Zm-80.4 0h3.35L402 139.15v-3.025L16.75 484ZM0 426.525v3.025l402-363v-3.025l-402 363Zm0-72.6v3.025L395.3 0h-3.35L0 353.925Zm0-72.6v3.025L314.9 0h-3.35L0 281.325Zm0-72.6v3.025L234.5 0h-3.35L0 208.725ZM338.35 484h3.35l60.3-54.45v-3.025L338.35 484Zm-80.4 0h3.35L402 356.95v-3.025L257.95 484Zm-90.45 0h3.35L402 275.275v-3.025L167.5 484Zm-80.4 0h3.35L402 202.675v-3.025L87.1 484Zm-80.4 0h3.35L402 130.075v-3.025L6.7 484ZM0 417.45v3.025l402-363V54.45l-402 363Zm0-72.6v3.025L385.25 0h-3.35L0 344.85Zm0-72.6v3.025L304.85 0h-3.35L0 272.25ZM328.3 484h3.35L402 420.475v-3.025L328.3 484Zm-80.4 0h3.35L402 347.875v-3.025L247.9 484Zm-90.45 0h3.35L402 266.2v-3.025L157.45 484Zm-80.4 0h3.35L402 193.6v-3.025L77.05 484ZM0 480.975V484l402-363v-3.025l-402 363Zm0-72.6v3.025l402-363v-3.025l-402 363Zm0-72.6v3.025L375.2 0h-3.35L0 335.775Zm0-72.6v3.025L294.8 0h-3.35L0 263.175Zm402 217.8L398.65 484H402v-3.025ZM318.25 484h3.35l80.4-72.6v-3.025L318.25 484Zm-80.4 0h3.35L402 338.8v-3.025L237.85 484Z" fill="#D6D6D6"/></svg>