<svg width="506" height="732" fill="none" xmlns="http://www.w3.org/2000/svg"><path d="M0 0h356c82.843 0 150 67.157 150 150v466H0V0Z" fill="#F1F1F1"/><path fill-rule="evenodd" clip-rule="evenodd" d="M10.8 334 0 363.85v2.487L11.7 334h-.9Zm43.2 0L0 483.25v2.488L54.9 334H54Zm-21.6 0L0 423.55v2.488L33.3 334h-.9Zm-24.3 0L0 356.388v2.487L9 334h-.9Zm43.2 0L0 475.788v2.487L52.2 334h-.9Zm-21.6 0L0 416.087v2.488L30.6 334h-.9Zm-24.3 0L0 348.925v2.488L6.3 334h-.9Zm43.2 0L0 468.325v2.487L49.5 334h-.9ZM27 334 0 408.625v2.488L27.9 334H27Zm-24.3 0L0 341.462v2.488L3.6 334h-.9Zm43.2 0L0 460.863v2.487L46.8 334h-.9Zm-21.6 0L0 401.163v2.487L25.2 334h-.9ZM0 334v2.488L.9 334H0Zm43.2 0L0 453.4v2.488L44.1 334h-.9Zm-21.6 0L0 393.7v2.488L22.5 334h-.9Zm18.9 0L0 445.938v2.487L41.4 334h-.9Zm-21.6 0L0 386.238v2.487L19.8 334h-.9Zm40.5 0L0 498.175v2.488L60.3 334h-.9Zm-21.6 0L0 438.475v2.487L38.7 334h-.9Zm-21.6 0L0 378.775v2.488L17.1 334h-.9Zm40.5 0L0 490.713v2.487L57.6 334h-.9Zm-21.6 0L0 431.013v2.487L36 334h-.9Zm-21.6 0L0 371.312v2.488L14.4 334h-.9Zm47.7 398h.9L108 605.138v-2.488L61.2 732Zm-21.6 0h.9L108 545.438v-2.488L39.6 732ZM18 732h.9L108 485.738v-2.488L18 732Zm-18-9.95v2.488l108-298.5v-2.488L0 722.05Zm0-59.7v2.488l108-298.501v-2.487L0 662.35Zm0-59.7v2.488L98.1 334h-.9L0 602.65Zm0-59.7v2.488L76.5 334h-.9L0 542.95ZM105.3 732l2.7-7.462v-2.488l-3.6 9.95h.9Zm-22.5 0h.9l24.3-67.162v-2.488L82.8 732Zm-24.3 0h.9L108 597.675v-2.487L58.5 732Zm-21.6 0h.9L108 537.975v-2.487L36.9 732Zm-21.6 0h.9L108 478.275v-2.487L15.3 732ZM0 714.587v2.488l108-298.5v-2.488L0 714.587Zm0-59.699v2.487l108-298.5v-2.487L0 654.888Zm0-59.7v2.487L95.4 334h-.9L0 595.188Zm0-59.7v2.487L73.8 334h-.9L0 535.488ZM102.6 732l5.4-14.925v-2.488L101.7 732h.9Zm-22.5 0h.9l27-74.625v-2.487L80.1 732Zm-24.3 0h.9L108 590.213v-2.488L55.8 732Zm-21.6 0h.9L108 530.512v-2.487L34.2 732Zm-21.6 0h.9L108 470.812v-2.487L12.6 732ZM0 707.125v2.488l108-298.5v-2.488L0 707.125Zm0-59.7v2.487l108-298.499v-2.488L0 647.425Zm0-59.7v2.488L92.7 334h-.9L0 587.725Zm0-59.7v2.487L71.1 334h-.9L0 528.025ZM99.9 732l8.1-22.387v-2.488L99 732h.9Zm-22.5 0h.9l29.7-82.088v-2.487L77.4 732Zm-24.3 0h.9l54-149.25v-2.488L53.1 732Zm-21.6 0h.9L108 523.05v-2.488L31.5 732Zm-21.6 0h.9L108 463.35v-2.487L9.9 732ZM0 699.663v2.487l108-298.5v-2.487L0 699.663Zm0-59.7v2.487l108-298.5v-2.488L0 639.963Zm0-59.701v2.488L90 334h-.9L0 580.262Zm0-59.7v2.488L68.4 334h-.9L0 520.562ZM96.3 732h.9l10.8-29.85v-2.487L96.3 732Zm-21.6 0h.9l32.4-89.55v-2.487L74.7 732Zm-24.3 0h.9L108 575.288V572.8L50.4 732Zm-21.6 0h.9L108 515.588V513.1L28.8 732Zm-21.6 0h.9L108 455.888V453.4L7.2 732ZM0 692.2v2.488l108-298.5V393.7L0 692.2Zm0-59.7v2.488l108-298.5V334L0 632.5Zm0-59.7v2.488L87.3 334h-.9L0 572.8Zm0-59.7v2.488L65.7 334h-.9L0 513.1ZM93.6 732h.9l13.5-37.312V692.2L93.6 732ZM72 732h.9l35.1-97.012V632.5L72 732Zm-24.3 0h.9L108 567.825v-2.487L47.7 732Zm-21.6 0h.9l81-223.875v-2.488L26.1 732Zm-21.6 0h.9L108 448.425v-2.487L4.5 732ZM0 684.737v2.488l108-298.5v-2.487L0 684.737Zm0-59.7v2.488L106.2 334h-.9L0 625.037Zm0-59.699v2.487L84.6 334h-.9L0 565.338Zm0-59.701v2.488L63 334h-.9L0 505.637ZM90.9 732h.9l16.2-44.775v-2.488L90.9 732Zm-21.6 0h.9L108 627.525v-2.488L69.3 732ZM45 732h.9L108 560.363v-2.488L45 732Zm-21.6 0h.9L108 500.663v-2.488L23.4 732Zm-21.6 0h.9L108 440.962v-2.487L1.8 732ZM0 677.275v2.488l108-298.5v-2.488L0 677.275Zm0-59.7v2.487L103.5 334h-.9L0 617.575Zm0-59.7v2.488L81.9 334H81L0 557.875ZM88.2 732h.9l18.9-52.237v-2.488L88.2 732Zm-21.6 0h.9L108 620.062v-2.487L66.6 732Zm-24.3 0h.9L108 552.9v-2.487L42.3 732Zm-21.6 0h.9L108 493.2v-2.487L20.7 732ZM0 729.513V732l108-298.5v-2.487L0 729.513Zm0-59.701v2.488l108-298.5v-2.488L0 669.812Zm0-59.699v2.487L100.8 334h-.9L0 610.113Zm0-59.7v2.487L79.2 334h-.9L0 550.413Zm108 179.1-.9 2.487h.9v-2.487ZM85.5 732h.9l21.6-59.7v-2.488L85.5 732Zm-21.6 0h.9L108 612.6v-2.487L63.9 732Z" fill="#AB1E44"/></svg>