<svg width="150" height="30" fill="none" xmlns="http://www.w3.org/2000/svg"><g clip-path="url(#a)"><path d="M119.514 14.82a6129.99 6129.99 0 0 1-2.085 3.25c-.209.35-.439.687-.687 1.011-.732.896-1.726.901-2.446-.015-.433-.554-.781-1.171-1.163-1.765-.556-.861-1.109-1.724-1.839-2.544-.015.277-.044.552-.044.83v5.568a4.79 4.79 0 0 1-.038.888 1.488 1.488 0 0 1-1.397 1.223 1.437 1.437 0 0 1-1.506-1.071 4.05 4.05 0 0 1-.123-1.096c-.008-3.676-.008-7.351 0-11.026a3.885 3.885 0 0 1 .095-.991c.319-1.212 1.643-1.562 2.515-.668.247.277.466.578.653.898 1.14 1.781 2.269 3.57 3.403 5.351.194.303.414.589.678.958.266-.387.477-.679.671-.981 1.178-1.845 2.34-3.698 3.532-5.535.683-1.057 1.261-1.348 2.065-1.11.735.213 1.036.781 1.037 1.99v11.248c.012.26.002.52-.031.778a1.482 1.482 0 0 1-1.375 1.246c-.709.049-1.32-.333-1.524-1.038-.1-.394-.144-.8-.134-1.206-.013-2.037-.005-4.074-.005-6.111l-.254-.084M62.852 22.064c-1.766 1.402-3.616 1.56-5.52.718-1.942-.86-2.872-2.5-3.11-4.55a6.52 6.52 0 0 1 .588-3.684c1.63-3.346 5.754-3.668 7.737-1.975.108.078.22.15.338.213.147-.24.31-.47.486-.69.8-.871 2.111-.595 2.488.527.08.247.12.504.12.764.01 2.671.01 5.343 0 8.014.002.26-.033.517-.106.765-.36 1.171-1.724 1.477-2.552.573-.17-.185-.292-.415-.473-.679l.004.004Zm.083-4.64c0-1.826-1.114-3.075-2.758-3.1-1.67-.027-2.915 1.294-2.922 3.095-.006 1.817 1.197 3.087 2.917 3.069 1.679-.014 2.765-1.215 2.765-3.063M88.2 12.82c.67-1.07 1.223-1.39 1.964-1.17.77.224 1.075.764 1.077 1.96.006 2.526.006 5.053 0 7.579.006.26-.004.52-.029.778-.076.607-.402 1.033-.991 1.216-.624.194-1.179.055-1.611-.446a7.25 7.25 0 0 1-.456-.67c-1.09.91-2.326 1.322-3.722 1.183-2.328-.23-3.998-1.596-4.68-3.837a6.733 6.733 0 0 1-.037-3.844c1.12-4.015 5.726-5.11 8.486-2.744l-.002-.005Zm-5.667 4.645c.015 1.795 1.257 3.06 2.978 3.03 1.656-.03 2.782-1.293 2.766-3.1-.02-1.784-1.203-3.064-2.83-3.064-1.658 0-2.921 1.362-2.905 3.134M134.296 22.06c-1.934 1.49-3.929 1.617-5.922.525-2.115-1.158-2.854-3.163-2.765-5.453a6.886 6.886 0 0 1 .69-2.666c1.419-2.907 5.026-3.76 7.674-1.895.117.082.235.16.353.24.18-.27.319-.543.515-.754.384-.401.87-.575 1.42-.417.581.166.966.547 1.064 1.158.034.258.047.518.039.778v7.69c0 .148 0 .297-.006.446-.016.697-.309 1.218-.986 1.461-.658.239-1.269.028-1.755-.594a5.927 5.927 0 0 1-.327-.519h.006Zm.091-4.577c.028-1.828-1.184-3.17-2.848-3.159-1.619.013-2.854 1.313-2.886 3.041-.033 1.795 1.183 3.114 2.88 3.124 1.679.01 2.829-1.202 2.854-3.006ZM97.578 12.631c.966-.69 1.967-1.044 3.078-1.045 2.208 0 3.935 1.403 4.094 3.593.156 2.22.087 4.457.057 6.686-.011.851-.648 1.39-1.436 1.404-.822.012-1.476-.569-1.502-1.464-.045-1.522-.013-3.046-.023-4.57a6.808 6.808 0 0 0-.075-1.22c-.213-1.097-1.077-1.778-2.127-1.72-1.124.06-1.956.851-1.99 2.003-.044 1.523-.014 3.047-.02 4.571.014.334.002.669-.034 1-.143.91-.762 1.437-1.588 1.391-.827-.046-1.37-.625-1.44-1.547-.014-.185-.006-.371-.006-.557v-7.47a4.301 4.301 0 0 1 .04-.888 1.472 1.472 0 0 1 1.744-1.166c.255.053.491.174.685.349.193.167.334.394.546.65M73.82 14.393c-1.29 0-2.324.007-3.357 0a4.393 4.393 0 0 1-.991-.084 1.202 1.202 0 0 1-.968-1.197 1.285 1.285 0 0 1 .927-1.246.742.742 0 0 1 .213-.047c2.372 0 4.745-.048 7.116.017.983.027 1.447.992 1.018 1.882a3.482 3.482 0 0 1-.45.632c-.394.492-.798.977-1.197 1.464l-3.022 3.709c-.203.25-.386.517-.721.967h2.789c.593 0 1.189-.03 1.778.022.733.063 1.158.554 1.17 1.242.008.655-.34 1.104-1.025 1.253-.29.055-.586.08-.881.072-2.04.005-4.079 0-6.118 0h-.334c-.58-.016-1.119-.14-1.404-.716-.302-.613-.106-1.143.308-1.637 1.44-1.745 2.876-3.493 4.307-5.245.23-.28.444-.57.84-1.083M47.36 15.163l3.552 4.104c.46.532.937 1.053 1.383 1.597.567.707.55 1.452-.008 1.99-.588.565-1.439.559-2.076-.122-1.012-1.084-1.965-2.22-2.942-3.336-.878-1.005-1.764-2.002-2.63-3.017-.837-.982-.84-1.485.013-2.412 1.633-1.773 3.282-3.529 4.93-5.287.17-.195.363-.37.574-.52a1.361 1.361 0 0 1 1.895 1.894c-.196.27-.413.524-.649.76-1.308 1.412-2.62 2.82-4.041 4.345M146.926 14.585c0-2.226.048-4.453-.02-6.677-.036-1.187.566-1.998 1.575-1.981.957.017 1.506.681 1.51 1.936.011 4.489.011 8.978 0 13.467a3.04 3.04 0 0 1-.122.873c-.22.712-.802 1.102-1.51 1.06a1.483 1.483 0 0 1-1.394-1.225 4.856 4.856 0 0 1-.039-.885v-6.566M140.593 14.602V8.15a6.94 6.94 0 0 1 .029-.89c.106-.836.688-1.344 1.495-1.338.808.006 1.366.526 1.469 1.373.023.258.031.518.023.777v13.013c.013.333-.005.667-.053.997a1.485 1.485 0 0 1-1.47 1.165 1.486 1.486 0 0 1-1.443-1.199 5.938 5.938 0 0 1-.048-.997c-.004-2.15-.004-4.3 0-6.45M43.376 15.701v5.45c.012.333-.01.666-.066.994-.139.654-.684 1.08-1.35 1.115-.698.037-1.349-.391-1.517-1.057a4.066 4.066 0 0 1-.078-.993c-.004-3.743-.004-7.487 0-11.23a4.637 4.637 0 0 1 .052-.886c.152-.746.763-1.194 1.536-1.158.72.033 1.268.484 1.377 1.209.048.441.065.886.05 1.33v5.226" fill="#333"/><path fill-rule="evenodd" clip-rule="evenodd" d="M31.952 13.55c-.168-.647-.457-1.244-.78-1.822-.618-1.102-1.244-2.2-1.88-3.295-.495-.859-.996-1.713-1.502-2.563a5.375 5.375 0 0 0-1.014-1.264c-.666-.595-1.43-.812-2.3-.574-.43.128-.834.334-1.19.607-.463.336-.87.732-1.272 1.134a5945.22 5945.22 0 0 0-3.786 3.795c-.736.74-1.473 1.48-2.2 2.228-.444.458-.835.959-1.103 1.545-.388.848-.397 1.699-.005 2.543.131.286.292.557.48.809.28.367.583.716.906 1.045 1.907 1.926 3.82 3.847 5.738 5.762.284.283.569.54.872.801.412.356.879.671 1.4.848.866.293 1.652.151 2.357-.433.132-.108.257-.224.374-.347.352-.386.66-.812.914-1.268a890.44 890.44 0 0 0 2.841-4.919c.296-.516.57-1.046.825-1.584.306-.62.467-1.302.468-1.994 0-.356-.048-.71-.143-1.054Zm-23.61 1.124c-.004-1.133.017-2.077.018-2.367.005-1.098.032-2.192.037-3.29 0-.469 0-.926-.005-1.396-.003-.236-.01-.48-.01-.717a6.504 6.504 0 0 0-.147-1.5c-.1-.423-.275-.832-.58-1.153-.445-.466-1.04-.565-1.628-.3-.32.154-.607.372-.84.64a7.168 7.168 0 0 0-.883 1.242c-1.084 1.87-2.165 3.742-3.242 5.616-.308.526-.57 1.078-.786 1.648a4.236 4.236 0 0 0-.025 2.94c.19.537.426 1.056.703 1.554 1.027 1.802 2.063 3.577 3.097 5.376.279.505.594.989.943 1.447.205.269.492.578.834.774.456.26.926.336 1.412.1a1.64 1.64 0 0 0 .733-.749c.244-.463.327-.98.379-1.534.014-.24.018-.393.025-.619.025-.752.03-1.52.026-2.272-.005-1.14-.052-3.567-.06-5.44Zm13.455 10.939a20.4 20.4 0 0 0-1.124-1.257 1680.054 1680.054 0 0 0-5.69-5.698c-.34-.34-.696-.666-1.057-.983a3.884 3.884 0 0 0-1.264-.759c-.758-.268-1.47-.097-1.972.472-.2.236-.352.508-.447.802-.17.486-.233 1.032-.24 1.542-.015 1.106-.021 2.171-.015 3.277.004.803.028 1.608.054 2.411.012.476.079.949.198 1.41.25.941.79 1.642 1.7 2.028.303.124.62.21.943.255.555.08 1.116.12 1.677.115H18.45a14.81 14.81 0 0 0 1.82-.079c.468-.056.918-.166 1.327-.411.664-.397.966-1.094.808-1.856a2.912 2.912 0 0 0-.608-1.27Zm-11.71-15.25c.066.42.174.829.396 1.191.269.436.638.746 1.146.843.424.081.846 0 1.242-.176.48-.223.92-.523 1.303-.888.38-.35.748-.71 1.113-1.074 1.892-1.896 3.782-3.792 5.67-5.688.347-.336.662-.703.943-1.097.218-.3.38-.638.478-.996.162-.693.026-1.36-.575-1.844a2.476 2.476 0 0 0-.575-.33c-.434-.189-1.051-.238-1.45-.265-.525-.036-1.045-.03-1.56-.036-.534-.006-3.476-.004-4.465.014a5.661 5.661 0 0 0-1.268.168c-1.184.294-1.93 1.033-2.24 2.219-.178.686-.219 1.388-.228 2.093-.012.872-.029 1.762-.031 2.635 0 .541.008 1.066.008 1.608 0 .541.005 1.086.093 1.624Z" fill="url(#b)"/></g><defs><linearGradient id="b" x1="5.569" y1="4.205" x2="26.497" y2="25.116" gradientUnits="userSpaceOnUse"><stop stop-color="#FF8519"/><stop offset="1" stop-color="#FD238A"/></linearGradient><clipPath id="a"><path fill="#fff" d="M0 0h150v29.231H0z"/></clipPath></defs></svg>