<svg width="220" height="39" fill="none" xmlns="http://www.w3.org/2000/svg"><g clip-path="url(#a)"><path d="M72.441 3.39V19.84c0 8.018-6.081 10.716-11.969 10.716-5.887 0-11.968-2.698-11.968-10.716V3.39h7.029v16.07c0 3.57 1.937 4.83 4.94 4.83 3.002 0 4.94-1.253 4.94-4.83V3.39h7.028ZM87.792 3.39c9.499 0 13.913 5.548 13.913 13.303 0 7.756-4.407 13.304-13.913 13.304H77.193V3.39h10.6Zm0 6.08h-3.57v14.44h3.57c4.22 0 6.69-2.242 6.69-7.224 0-4.98-2.47-7.215-6.69-7.215ZM126.742 2.822c2.85 0 5.735.61 8.246 1.675v6.648c-1.978-1.37-4.676-2.13-7.333-2.13-4.296 0-8.357 2.206-8.357 7.678 0 6.573 4.829 7.825 7.866 7.825.761 0 1.37-.076 1.826-.194v-8.966h6.649v13.415c-2.733 1.141-5.812 1.785-8.814 1.785-7.562 0-14.743-4.22-14.743-13.872 0-9.65 7.257-13.87 14.667-13.87M152.014 11.366v6.268c-2.546-.567-5.244.229-6.379 1.979V29.99h-6.461V11.747h5.7v2.47c1.253-1.827 3.57-3.231 7.14-2.85ZM163.568 11.18c5.473 0 10.26 3.23 10.26 9.692s-4.787 9.693-10.26 9.693c-5.472 0-10.259-3.231-10.259-9.693 0-6.461 4.787-9.692 10.259-9.692Zm0 5.7c-2.656 0-3.611 1.937-3.611 3.992 0 2.055.948 3.992 3.611 3.992 2.664 0 3.612-1.937 3.612-3.992 0-2.055-.948-3.992-3.612-3.992ZM195.413 11.747v18.244h-5.7V27.9c-1.522 1.633-3.383 2.664-5.812 2.664-5.015 0-7.298-3.383-7.298-7.486V11.747h6.461v10.454c0 1.937 1.176 2.85 2.774 2.85 1.439 0 2.546-.872 3.114-1.598V11.747h6.461ZM211.186 11.18c6.116 0 8.814 4.98 8.814 9.692s-2.698 9.693-8.814 9.693c-2.545 0-4.33-.914-5.437-2.055v9.845h-6.462V11.747h5.701v2.47c.913-1.522 2.926-3.037 6.192-3.037h.006Zm-1.757 5.32a4.114 4.114 0 0 0-3.687 2.276v4.178a4.11 4.11 0 0 0 3.687 2.284c2.74 0 3.916-2.242 3.916-4.373 0-2.13-1.176-4.372-3.916-4.372" fill="#1D365D"/><path d="M8.198 17.842V8.067A8.117 8.117 0 0 0 .083 0H0v17.842c0 8.254 6.69 14.95 14.95 14.95h6.13S8.205 32.6 8.205 17.842" fill="#AB1F44"/><path d="M25.016 0h-8.613v16.396h.097c4.476 0 8.108-3.715 8.108-8.191 5.147.055 8.184 2.85 8.184 8.011v.36a8.02 8.02 0 0 1-8.018 8.018H14.95a6.77 6.77 0 0 1-2.31-.415c1.95 5.009 6.268 8.496 12.12 8.6 8.987-.139 16.23-7.458 16.23-16.48v-.332C40.99 7.153 33.838 0 25.017 0Z" fill="#AB1F44"/></g><defs><clipPath id="a"><path fill="#fff" d="M0 0h220v38.348H0z"/></clipPath></defs></svg>